<svg height="794.69949" viewBox="0 0 887.59053 794.69949" width="887.59053" xmlns="http://www.w3.org/2000/svg" xmlns:xlink="http://www.w3.org/1999/xlink"><linearGradient id="a" gradientUnits="userSpaceOnUse" x1="148.90523" x2="148.90523" y1="794.69949" y2="65.63373"><stop offset="0" stop-color="#808080" stop-opacity=".25"/><stop offset=".53514" stop-color="#808080" stop-opacity=".12"/><stop offset="1" stop-color="#808080" stop-opacity=".1"/></linearGradient><linearGradient id="b" x1="446.71569" x2="446.71569" xlink:href="#a" y1="794.69949" y2="65.63373"/><linearGradient id="c" x1="741.60573" x2="741.60573" xlink:href="#a" y1="794.69949" y2="65.63373"/><linearGradient id="d" gradientUnits="userSpaceOnUse" x1="889.89998" x2="889.89998" y1="291.93722" y2="71.20644"><stop offset="0" stop-color="#b3b3b3" stop-opacity=".25"/><stop offset=".53514" stop-color="#b3b3b3" stop-opacity=".1"/><stop offset="1" stop-color="#b3b3b3" stop-opacity=".05"/></linearGradient><linearGradient id="e" gradientUnits="userSpaceOnUse" x1="733.69525" x2="733.69525" y1="105.86015" y2="63.03179"><stop offset="0" stop-opacity=".12"/><stop offset=".55135" stop-opacity=".09"/><stop offset="1" stop-opacity=".02"/></linearGradient><linearGradient id="f" x1="311.1462" x2="311.1462" xlink:href="#d" y1="736.28097" y2="513.98983"/><linearGradient id="g" gradientUnits="userSpaceOnUse" x1="154.94147" x2="154.94147" y1="549.2607" y2="506.12958"><stop offset=".00541" stop-opacity=".12"/><stop offset=".55135" stop-opacity=".09"/><stop offset="1" stop-opacity=".05"/></linearGradient><path d="m297.81 766.722-297.81 27.977v-701.088l297.81-27.977z" fill="url(#a)"/><path d="m297.81 766.722 297.811 27.977v-701.088l-297.811-27.977z" fill="url(#b)"/><path d="m887.591 766.722-291.97 27.977v-701.088l291.97-27.977z" fill="url(#c)"/><path d="m298.865 747.261-289.377 26.882v-673.632l289.377-26.882z" fill="#f5f5f5"/><path d="m298.865 747.261 289.377 26.882v-673.632l-289.377-26.882z" fill="#fff"/><path d="m877.618 747.261-289.376 26.882v-673.632l289.376-26.882z" fill="#f5f5f5"/><g fill="#2473b8"><path d="m298.865 135.494-219.8 7.712v30.045 41.113 30.045h186.592v-36.592l33.208-1.165 50.601 15.619v-71.158z" opacity=".3"/><path d="m298.865 701.403-246.682 23.72v-90.134l246.682-23.72z" opacity=".3"/><path d="m271.865 422.403-246.682 23.72v-90.134l246.682-23.72z" opacity=".3"/><path d="m444.34375 631.82616h107.52802v82.22731h-107.52802z" opacity=".3"/><path d="m409.34375 438.82616h107.52802v82.22731h-107.52802z" opacity=".3"/><path d="m453.34375 181.82616h107.52802v82.22731h-107.52802z" opacity=".3"/><path d="m836.505 676.102-167.617 14.232v-109.109l167.617-14.232z" opacity=".3"/><path d="m816.505 292.102-167.617 14.232v-109.109l167.617-14.232z" opacity=".3"/></g><path d="m958.28172 142.038c0 39.11917-68.38174 149.89926-68.38174 149.89926s-68.38174-110.78013-68.38174-149.89926 30.61555-70.83156 68.38176-70.83156 68.38172 31.71235 68.38172 70.83156z" fill="url(#d)" transform="translate(-156.20473 -52.65025)"/><ellipse cx="733.69525" cy="84.44597" fill="url(#e)" rx="20.67355" ry="21.41418"/><path d="m953.17715 142.165c0 34.947-63.27717 133.91214-63.27717 133.91214s-63.27717-98.96514-63.27717-133.91214a63.27717 63.27717 0 1 1 126.55434 0z" fill="#2473b8" transform="translate(-156.20473 -52.65025)"/><circle cx="733.69525" cy="85.10003" fill="#fff" r="19.13031"/><path d="m381.55767 585.32206c0 39.39571-70.41147 150.95891-70.41147 150.95891s-70.41146-111.5632-70.41146-150.95891 31.52429-71.33223 70.41146-71.33223 70.41147 31.93653 70.41147 71.33223z" fill="url(#f)" transform="translate(-156.20473 -52.65025)"/><ellipse cx="154.94147" cy="527.69514" fill="url(#g)" rx="21.28719" ry="21.56556"/><path d="m374.42337 584.92742c0 34.947-63.27717 133.91214-63.27717 133.91214s-63.2772-98.96513-63.2772-133.91214a63.27717 63.27717 0 1 1 126.55433 0z" fill="#2473b8" transform="translate(-156.20473 -52.65025)"/><circle cx="154.94147" cy="527.86248" fill="#fff" r="19.13031"/><path d="m717.42337 589.92742c0 34.947-63.27717 133.91214-63.27717 133.91214s-63.2772-98.96513-63.2772-133.91214a63.27717 63.27717 0 1 1 126.55433 0z" fill="#2473b8" transform="translate(-156.20473 -52.65025)"/><circle cx="497.94147" cy="532.86248" fill="#fff" r="19.13031"/><path d="m965.42337 549.92742c0 34.947-63.27717 133.91214-63.27717 133.91214s-63.2772-98.96513-63.2772-133.91214a63.27716 63.27716 0 1 1 126.55433 0z" fill="#2473b8" transform="translate(-156.20473 -52.65025)"/><circle cx="745.94147" cy="492.86248" fill="#fff" r="19.13031"/><path d="m406.42337 115.92742c0 34.947-63.27717 133.91214-63.27717 133.91214s-63.2772-98.96513-63.2772-133.91214a63.27717 63.27717 0 1 1 126.55433 0z" fill="#2473b8" transform="translate(-156.20473 -52.65025)"/><circle cx="186.94147" cy="58.86248" fill="#fff" r="19.13031"/></svg>