<svg height="959.78855" viewBox="0 0 1142.04574 959.78855" width="1142.04574" xmlns="http://www.w3.org/2000/svg" xmlns:xlink="http://www.w3.org/1999/xlink"><linearGradient id="a" gradientUnits="userSpaceOnUse" x1="535.45073" x2="535.45073" y1="779.24414" y2="104.90687"><stop offset="0" stop-color="#808080" stop-opacity=".25"/><stop offset=".53514" stop-color="#808080" stop-opacity=".12"/><stop offset="1" stop-color="#808080" stop-opacity=".1"/></linearGradient><clipPath id="b" transform="translate(-64.54927 -7.92449)"><path d="m889.286 734.556h-164.583l-251.058 24.269-253.001-24.269v-594.596l251.952 18.202 257.393-18.202 251.797 34.381v467.184z"/></clipPath><linearGradient id="c" gradientUnits="userSpaceOnUse" x1="873.18636" x2="873.18636" y1="742.81095" y2="620.07624"><stop offset="0" stop-opacity=".12"/><stop offset=".55135" stop-opacity=".09"/><stop offset="1" stop-opacity=".02"/></linearGradient><path d="m829.064 752.8h-159.765l-272.121 26.444-274.227-26.444v-647.893l273.09 19.833 278.988-19.833 272.922 37.463-7.006 497.539z" fill="url(#a)"/><path d="m823.856 743.794h-156.27l-266.168 25.73-268.228-25.73v-630.382l267.116 19.297 272.884-19.297 266.952 36.451-6.853 484.092z" fill="#fff"/><path d="m824.736 726.631h-164.582l-251.058 24.27-253.001-24.27v-594.596l251.952 18.202 257.393-18.202 251.797 34.382v467.183z" fill="#2473b8"/><g clip-path="url(#b)"><path d="m1142.046 905.143-577.957-320.06 146.802-487.751-49.96-19.812-71.143 236.373-566.821-313.893-22.967 54.646 572.409 316.988-130.683 434.194 49.96 19.812 55.024-182.817 572.369 316.966z" fill="#fff"/></g><path d="m813.083 742.811 1.936-122.735 118.27 4.771z" fill="url(#c)"/><path d="m156.095 388.993 362.749 160.612 24.107 49.971-24 25-362.856-172.087z" fill="#fff"/><path d="m823.856 742.811 1.762-113.256 107.671 4.402z" fill="#fff"/><path d="m648.951 647.576 151.358-497.125 60.21 8.221-169.568 514.904z" fill="#fff"/><path d="m408.047 750.901 251.952-24.27v-594.596l-251.952 18.202" opacity=".1"/><path d="m703.348 356.36044c0 48.0293-86.96475 184.04167-86.96475 184.04167s-86.96474-136.01237-86.96474-184.04167a86.96475 86.96475 0 1 1 173.92949 0z" fill="#ff5252" transform="translate(-64.54927 -7.92449)"/><circle cx="551.83402" cy="342.36863" fill="#fff" r="26.29167"/><path d="m784.67 388.993 132.567 34.016v63.496l-162.286-57.929z" fill="#fff"/><path d="m279.434 510.983-33.483 231.593 38 8 50.059-213.71-.059-30.29z" fill="#fff"/><path d="m278.084 208.643-37.57 217.728 29.09 15.705 69.347-233.5z" fill="#fff"/><g fill="#ff5252"><circle cx="349.95073" cy="165.57551" r="8"/><circle cx="253.95073" cy="579.57551" r="8"/><circle cx="245.95073" cy="638.57551" r="8"/><circle cx="330.95073" cy="624.57551" r="8"/><circle cx="193.95073" cy="384.57551" r="8"/><circle cx="823.95073" cy="376.57551" r="8"/><circle cx="754.95073" cy="654.57551" r="8"/></g></svg>